<svg xmlns="http://www.w3.org/2000/svg" version="1.1" xmlns:xlink="http://www.w3.org/1999/xlink" xmlns:svgjs="http://svgjs.dev/svgjs" width="1000" height="199" viewBox="0 0 1000 199"><g transform="matrix(1,0,0,1,-0.6060606060606233,0.12020809832878854)"><svg viewBox="0 0 396 79" data-background-color="#dedede" preserveAspectRatio="xMidYMid meet" height="199" width="1000" xmlns="http://www.w3.org/2000/svg" xmlns:xlink="http://www.w3.org/1999/xlink"><g id="tight-bounds" transform="matrix(1,0,0,1,0.2400000000000091,-0.04772080285414404)"><svg viewBox="0 0 395.52 79.09544160570826" height="79.09544160570826" width="395.52"><g><svg viewBox="0 0 573.3379356624578 114.65518105412431" height="79.09544160570826" width="395.52"><g><rect width="4.704081349885398" height="114.65518105412431" x="160.7995052291028" y="0" fill="#374151" opacity="1" stroke-width="0" stroke="transparent" fill-opacity="1" class="rect-r$-0" data-fill-palette-color="primary" rx="1%" id="r$-0" data-palette-color="#374151"></rect></g><g transform="matrix(1,0,0,1,177.81793566245784,0.2852118931694605)"><svg viewBox="0 0 395.52 114.08475726778539" height="114.08475726778539" width="395.52"><g id="textblocktransform"><svg viewBox="0 0 395.52 114.08475726778539" height="114.08475726778539" width="395.52" id="textblock"><g><svg viewBox="0 0 395.52 114.08475726778539" height="114.08475726778539" width="395.52"><g transform="matrix(1,0,0,1,0,0)"><svg width="395.52" viewBox="0.5700000000000003 -31.610000000000003 246.9 66.68" height="114.08475726778539" data-palette-color="#374151"><svg></svg><svg></svg><g class="wordmark-text-0" data-fill-palette-color="primary" id="text-0"><path d="M10.8-28.1h-8.56c-0.573 0-0.993-0.173-1.26-0.52-0.273-0.347-0.41-0.72-0.41-1.12 0-0.4 0.137-0.773 0.41-1.12 0.267-0.347 0.687-0.52 1.26-0.52v0h20.98c0.533 0 0.937 0.173 1.21 0.52 0.267 0.347 0.4 0.72 0.4 1.12 0 0.4-0.143 0.773-0.43 1.12-0.287 0.347-0.68 0.52-1.18 0.52v0h-8.51v26.2c0 0.887-0.383 1.483-1.15 1.79v0c-0.227 0.073-0.533 0.11-0.92 0.11-0.38 0-0.78-0.153-1.2-0.46-0.427-0.307-0.64-0.787-0.64-1.44v0zM50-17.93v-11.55c0-0.88 0.44-1.457 1.32-1.73v0c0.233-0.033 0.52-0.07 0.86-0.11 0.347-0.04 0.73 0.093 1.15 0.4 0.427 0.307 0.64 0.787 0.64 1.44v0 27.58c0 0.58-0.173 1.023-0.52 1.33v0c-0.46 0.38-0.95 0.57-1.47 0.57-0.513 0-0.973-0.153-1.38-0.46-0.4-0.307-0.6-0.787-0.6-1.44v0-12.76h-16.49v12.76c0 0.58-0.153 1.023-0.46 1.33v0c-0.46 0.38-0.96 0.57-1.5 0.57-0.533 0-0.993-0.153-1.38-0.46-0.38-0.307-0.57-0.787-0.57-1.44v0-27.58c0-0.88 0.42-1.457 1.26-1.73v0c0.233-0.033 0.52-0.07 0.86-0.11 0.347-0.04 0.73 0.093 1.15 0.4 0.427 0.307 0.64 0.787 0.64 1.44v0 11.55zM65.72-20.2c-0.367 1.587-0.55 3.137-0.55 4.65 0 1.513 0.183 3.077 0.55 4.69 0.36 1.607 0.983 3.013 1.87 4.22 0.88 1.207 1.97 2.173 3.27 2.9 1.307 0.733 2.897 1.1 4.77 1.1 1.88 0 3.49-0.367 4.83-1.1 1.34-0.727 2.433-1.693 3.28-2.9 0.84-1.207 1.46-2.613 1.86-4.22 0.407-1.613 0.61-3.177 0.61-4.69 0-1.513-0.203-3.063-0.61-4.65-0.4-1.593-1.02-2.993-1.86-4.2-0.847-1.207-1.94-2.173-3.28-2.9-1.34-0.727-2.95-1.09-4.83-1.09-1.873 0-3.463 0.363-4.77 1.09-1.3 0.727-2.39 1.693-3.27 2.9-0.887 1.207-1.51 2.607-1.87 4.2zM60.86-15.63v0c0-2.227 0.327-4.333 0.98-6.32 0.653-1.993 1.63-3.7 2.93-5.12v0c2.607-2.987 6.207-4.5 10.8-4.54v0c4.68 0 8.34 1.513 10.98 4.54v0c1.267 1.42 2.217 3.127 2.85 5.12 0.627 1.987 0.94 4.093 0.94 6.32v0c0 2.26-0.313 4.413-0.94 6.46-0.633 2.053-1.583 3.77-2.85 5.15v0c-2.64 2.987-6.3 4.48-10.98 4.48v0c-4.633 0-8.233-1.493-10.8-4.48v0c-1.3-1.46-2.277-3.193-2.93-5.2-0.653-2.013-0.98-4.15-0.98-6.41zM114.6-5.06h0.06l10.4-22.99c0.613-1.3 1.073-2.123 1.38-2.47v0c0.647-0.573 1.307-0.86 1.98-0.86 0.673 0 1.19 0.077 1.55 0.23 0.367 0.153 0.683 0.363 0.95 0.63v0c0.653 0.653 0.98 1.517 0.98 2.59v0 26.21c0 0.573-0.183 1.003-0.55 1.29-0.367 0.287-0.78 0.43-1.24 0.43-0.453 0-0.853-0.143-1.2-0.43-0.347-0.287-0.52-0.717-0.52-1.29v0-25.75l-11.38 25.06c-0.46 1.147-1.263 1.72-2.41 1.72v0c-1 0-1.787-0.573-2.36-1.72v0l-11.32-24.95v25.64c0 0.573-0.183 1.003-0.55 1.29-0.36 0.287-0.77 0.43-1.23 0.43-0.46 0-0.873-0.143-1.24-0.43-0.36-0.287-0.54-0.717-0.54-1.29v0-26.21c0-1.687 0.613-2.76 1.84-3.22v0c0.42-0.073 0.85-0.13 1.29-0.17 0.44-0.04 0.843-0.003 1.21 0.11 0.36 0.12 0.673 0.293 0.94 0.52v0c0.46 0.387 1.037 1.267 1.73 2.64v0zM154.89-27.93l10.57 25.52c0.04 0.227 0.06 0.457 0.06 0.69 0 0.227-0.06 0.457-0.18 0.69-0.113 0.227-0.263 0.397-0.45 0.51v0c-0.387 0.347-0.81 0.52-1.27 0.52v0c-0.92 0-1.533-0.403-1.84-1.21v0l-2.81-6.95h-15.52l-2.76 6.95c-0.267 0.807-0.803 1.21-1.61 1.21-0.807 0-1.42-0.343-1.84-1.03v0c-0.113-0.233-0.17-0.447-0.17-0.64 0-0.187 0.057-0.433 0.17-0.74v0l10.4-25.52c0.767-1.913 1.65-3.007 2.65-3.28v0c0.267-0.033 0.61-0.09 1.03-0.17v0c0.767 0 1.343 0.173 1.73 0.52v0c0.613 0.46 1.227 1.437 1.84 2.93zM151.21-28.1l-6.67 16.89h13.39zM173.68-23.45v0c0 0.807 0.267 1.563 0.8 2.27 0.54 0.713 1.23 1.297 2.07 1.75 0.847 0.46 1.807 0.863 2.88 1.21 1.067 0.347 2.197 0.71 3.39 1.09 1.187 0.387 2.353 0.81 3.5 1.27 1.153 0.46 2.15 1.033 2.99 1.72v0c1.84 1.493 2.76 3.523 2.76 6.09v0c0 1.227-0.287 2.387-0.86 3.48-0.58 1.093-1.387 2.003-2.42 2.73v0c-2.107 1.533-4.923 2.3-8.45 2.3v0c-3.333 0-6.263-0.843-8.79-2.53v0c-1.567-0.993-2.35-1.837-2.35-2.53v0c0-0.613 0.303-1.11 0.91-1.49v0c0.153-0.153 0.347-0.23 0.58-0.23 0.227 0 0.477 0.097 0.75 0.29 0.267 0.187 0.583 0.417 0.95 0.69 0.36 0.267 0.817 0.563 1.37 0.89 0.56 0.32 1.147 0.617 1.76 0.89v0c1.533 0.613 3.027 0.9 4.48 0.86 1.453-0.04 2.623-0.157 3.51-0.35 0.88-0.187 1.663-0.51 2.35-0.97v0c1.46-1 2.207-2.267 2.24-3.8v0c0-1.913-0.937-3.387-2.81-4.42v0c-0.847-0.46-1.797-0.873-2.85-1.24-1.053-0.36-2.163-0.713-3.33-1.06-1.167-0.347-2.327-0.767-3.48-1.26-1.147-0.5-2.16-1.097-3.04-1.79v0c-1.88-1.493-2.82-3.407-2.82-5.74v0c0-1.227 0.297-2.377 0.89-3.45 0.593-1.073 1.407-1.957 2.44-2.65v0c1.993-1.413 4.483-2.14 7.47-2.18v0c4.333 0 7.82 1.4 10.46 4.2v0c0.153 0.227 0.23 0.483 0.23 0.77 0 0.287-0.007 0.527-0.02 0.72-0.02 0.193-0.127 0.387-0.32 0.58v0c-0.267 0.34-0.62 0.51-1.06 0.51-0.44 0-0.91-0.287-1.41-0.86v0c-1.267-0.92-2.283-1.513-3.05-1.78v0c-1.533-0.613-3.027-0.92-4.48-0.92v0c-1.88 0-3.49 0.383-4.83 1.15v0c-1.607 0.92-2.41 2.183-2.41 3.79z" fill="#374151" fill-rule="nonzero" stroke="none" stroke-width="1" stroke-linecap="butt" stroke-linejoin="miter" stroke-miterlimit="10" stroke-dasharray="" stroke-dashoffset="0" font-family="none" font-weight="none" font-size="none" text-anchor="none" style="mix-blend-mode: normal" data-fill-palette-color="primary" opacity="1"></path><path transform="translate(0,35.07)" d="M13.97-13.68h-5.81v11.78c0 0.92-0.42 1.517-1.26 1.79v0c-0.233 0.073-0.523 0.11-0.87 0.11-0.34 0-0.713-0.153-1.12-0.46-0.4-0.307-0.6-0.787-0.6-1.44v0-27.53c0-0.76 0.403-1.353 1.21-1.78v0c0.227-0.113 0.493-0.17 0.8-0.17v0h7.82c6.513 0 10.477 1.993 11.89 5.98v0c0.347 0.92 0.52 1.897 0.52 2.93 0 1.033-0.153 1.99-0.46 2.87-0.307 0.88-0.747 1.667-1.32 2.36-0.573 0.687-1.263 1.243-2.07 1.67-0.807 0.42-1.67 0.783-2.59 1.09v0c-1.8 0.533-3.847 0.8-6.14 0.8zM8.16-16.78h6.5c2.487 0 4.323-0.423 5.51-1.27v0c1.573-0.993 2.36-2.507 2.36-4.54v0c0-1.953-0.787-3.427-2.36-4.42v0c-1.187-0.767-3.007-1.19-5.46-1.27v0h-6.55zM46.84-27.93l10.57 25.52c0.04 0.227 0.06 0.457 0.06 0.69 0 0.227-0.057 0.457-0.17 0.69-0.113 0.227-0.267 0.397-0.46 0.51v0c-0.387 0.347-0.81 0.52-1.27 0.52v0c-0.913 0-1.523-0.403-1.83-1.21v0l-2.82-6.95h-15.52l-2.76 6.95c-0.267 0.807-0.803 1.21-1.61 1.21-0.8 0-1.41-0.343-1.83-1.03v0c-0.12-0.233-0.18-0.447-0.18-0.64 0-0.187 0.06-0.433 0.18-0.74v0l10.4-25.52c0.767-1.913 1.647-3.007 2.64-3.28v0c0.267-0.033 0.613-0.09 1.04-0.17v0c0.767 0 1.34 0.173 1.72 0.52v0c0.613 0.46 1.227 1.437 1.84 2.93zM43.16-28.1l-6.67 16.89h13.4zM80.92 0h-16.09c-0.88 0-1.493-0.383-1.84-1.15v0c-0.113-0.227-0.17-0.477-0.17-0.75v0-27.58c0-0.88 0.4-1.457 1.2-1.73v0c0.233-0.033 0.54-0.07 0.92-0.11 0.387-0.04 0.77 0.093 1.15 0.4 0.387 0.307 0.58 0.787 0.58 1.44v0 26.26h14.25c0.573 0 0.987 0.163 1.24 0.49 0.247 0.327 0.37 0.69 0.37 1.09 0 0.407-0.133 0.78-0.4 1.12-0.273 0.347-0.677 0.52-1.21 0.52zM102.53-27.93l10.57 25.52c0.04 0.227 0.06 0.457 0.06 0.69 0 0.227-0.057 0.457-0.17 0.69-0.113 0.227-0.267 0.397-0.46 0.51v0c-0.387 0.347-0.81 0.52-1.27 0.52v0c-0.913 0-1.523-0.403-1.83-1.21v0l-2.82-6.95h-15.52l-2.76 6.95c-0.267 0.807-0.803 1.21-1.61 1.21-0.8 0-1.41-0.343-1.83-1.03v0c-0.12-0.233-0.18-0.447-0.18-0.64 0-0.187 0.06-0.433 0.18-0.74v0l10.4-25.52c0.767-1.913 1.647-3.007 2.64-3.28v0c0.267-0.033 0.613-0.09 1.04-0.17v0c0.76 0 1.333 0.173 1.72 0.52v0c0.613 0.46 1.227 1.437 1.84 2.93zM98.85-28.1l-6.67 16.89h13.39zM135.69-5.06h0.06l10.4-22.99c0.613-1.3 1.073-2.123 1.38-2.47v0c0.653-0.573 1.313-0.86 1.98-0.86 0.673 0 1.19 0.077 1.55 0.23 0.367 0.153 0.683 0.363 0.95 0.63v0c0.653 0.653 0.98 1.517 0.98 2.59v0 26.21c0 0.573-0.183 1.003-0.55 1.29-0.36 0.287-0.77 0.43-1.23 0.43-0.46 0-0.863-0.143-1.21-0.43-0.347-0.287-0.52-0.717-0.52-1.29v0-25.75l-11.38 25.06c-0.46 1.147-1.263 1.72-2.41 1.72v0c-0.993 0-1.78-0.573-2.36-1.72v0l-11.32-24.95v25.64c0 0.573-0.18 1.003-0.54 1.29-0.367 0.287-0.78 0.43-1.24 0.43-0.46 0-0.873-0.143-1.24-0.43-0.36-0.287-0.54-0.717-0.54-1.29v0-26.21c0-1.687 0.613-2.76 1.84-3.22v0c0.42-0.073 0.85-0.13 1.29-0.17 0.44-0.04 0.843-0.003 1.21 0.11 0.36 0.12 0.677 0.293 0.95 0.52v0c0.46 0.387 1.033 1.267 1.72 2.64v0zM175.98-27.93l10.57 25.52c0.04 0.227 0.06 0.457 0.06 0.69 0 0.227-0.057 0.457-0.17 0.69-0.12 0.227-0.273 0.397-0.46 0.51v0c-0.387 0.347-0.81 0.52-1.27 0.52v0c-0.92 0-1.533-0.403-1.84-1.21v0l-2.81-6.95h-15.52l-2.76 6.95c-0.267 0.807-0.803 1.21-1.61 1.21-0.8 0-1.413-0.343-1.84-1.03v0c-0.113-0.233-0.17-0.447-0.17-0.64 0-0.187 0.057-0.433 0.17-0.74v0l10.41-25.52c0.767-1.913 1.647-3.007 2.64-3.28v0c0.267-0.033 0.61-0.09 1.03-0.17v0c0.767 0 1.343 0.173 1.73 0.52v0c0.613 0.46 1.227 1.437 1.84 2.93zM172.3-28.1l-6.67 16.89h13.39zM192.01-1.9v-27.53c0-0.76 0.423-1.353 1.27-1.78v0c0.227-0.113 0.473-0.17 0.74-0.17v0h9.37c5.06 0 8.47 1.34 10.23 4.02v0c0.613 1.113 0.92 2.523 0.92 4.23 0 1.707-0.557 3.153-1.67 4.34-1.107 1.187-2.697 1.99-4.77 2.41v0 0.17c1.993 0.347 3.413 1.093 4.26 2.24v0c0.647 0.96 1.057 2.247 1.23 3.86 0.173 1.607 0.317 2.87 0.43 3.79v0c0.12 1.34 0.237 2.813 0.35 4.42v0c0 0.653-0.203 1.133-0.61 1.44-0.4 0.307-0.85 0.46-1.35 0.46-0.493 0-0.933-0.143-1.32-0.43-0.38-0.287-0.61-0.717-0.69-1.29v0c-0.153-1.767-0.287-3.33-0.4-4.69-0.113-1.36-0.247-2.51-0.4-3.45-0.153-0.933-0.363-1.707-0.63-2.32-0.273-0.613-0.64-1.093-1.1-1.44v0c-0.767-0.573-2.28-0.9-4.54-0.98v0h-7.41v12.7c0 0.92-0.403 1.517-1.21 1.79v0c-0.227 0.073-0.523 0.11-0.89 0.11-0.36 0-0.753-0.153-1.18-0.46-0.42-0.307-0.63-0.787-0.63-1.44zM195.92-17.59h5.75c3.64 0 6.09-0.573 7.35-1.72v0c0.92-0.807 1.42-2.013 1.5-3.62v0c0-2.26-0.843-3.753-2.53-4.48v0c-0.92-0.46-1.84-0.72-2.76-0.78-0.92-0.06-1.647-0.09-2.18-0.09v0h-7.13zM236.84-27.93l10.57 25.52c0.04 0.227 0.06 0.457 0.06 0.69 0 0.227-0.057 0.457-0.17 0.69-0.113 0.227-0.267 0.397-0.46 0.51v0c-0.387 0.347-0.81 0.52-1.27 0.52v0c-0.913 0-1.523-0.403-1.83-1.21v0l-2.82-6.95h-15.52l-2.76 6.95c-0.267 0.807-0.803 1.21-1.61 1.21-0.8 0-1.41-0.343-1.83-1.03v0c-0.12-0.233-0.18-0.447-0.18-0.64 0-0.187 0.06-0.433 0.18-0.74v0l10.4-25.52c0.767-1.913 1.647-3.007 2.64-3.28v0c0.267-0.033 0.613-0.09 1.04-0.17v0c0.767 0 1.34 0.173 1.72 0.52v0c0.613 0.46 1.227 1.437 1.84 2.93zM233.16-28.1l-6.67 16.89h13.4z" fill="#374151" fill-rule="nonzero" stroke="none" stroke-width="1" stroke-linecap="butt" stroke-linejoin="miter" stroke-miterlimit="10" stroke-dasharray="" stroke-dashoffset="0" font-family="none" font-weight="none" font-size="none" text-anchor="none" style="mix-blend-mode: normal" data-fill-palette-color="primary" opacity="1"></path></g></svg></g></svg></g></svg></g></svg></g><g transform="matrix(1,0,0,1,0,0.2852118931694676)"><svg viewBox="0 0 148.48515614563317 114.08475726778538" height="114.08475726778538" width="148.48515614563317"><g><svg xmlns="http://www.w3.org/2000/svg" xmlns:xlink="http://www.w3.org/1999/xlink" version="1.1" x="0" y="0" viewBox="10.25 25.250999999999998 129.5 99.49799999999999" enable-background="new 0 0 150 150" xml:space="preserve" height="114.08475726778538" width="148.48515614563317" class="icon-icon-0" data-fill-palette-color="accent" id="icon-0"><g fill="#374151" data-fill-palette-color="accent"><g fill="#374151" data-fill-palette-color="accent"><polygon fill="#374151" points="139.75,120.37 90.927,120.37 90.927,115.87 135.25,115.87 135.25,45.372 14.75,45.372     14.75,115.87 59.073,115.87 59.073,120.37 10.25,120.37 10.25,40.872 139.75,40.872   " data-fill-palette-color="accent"></polygon><rect x="23.532" y="68.854" fill="#374151" width="4.5" height="36.766" data-fill-palette-color="accent"></rect><path fill="#374151" d="M116.759 45.376H33.241l22.14-20.125h39.238L116.759 45.376zM44.882 40.876h60.236L92.88 29.751H57.12L44.882 40.876z" data-fill-palette-color="accent"></path><path fill="#374151" d="M75 124.749c-19.496 0-35.356-15.86-35.356-35.356S55.504 54.035 75 54.035s35.356 15.861 35.356 35.357S94.496 124.749 75 124.749zM75 58.535c-17.015 0-30.856 13.843-30.856 30.857S57.985 120.249 75 120.249s30.856-13.842 30.856-30.856S92.015 58.535 75 58.535z" data-fill-palette-color="accent"></path><path fill="#374151" d="M75 115.143c-14.198 0-25.75-11.552-25.75-25.75S60.802 63.643 75 63.643s25.75 11.552 25.75 25.75S89.198 115.143 75 115.143zM75 68.143c-11.718 0-21.25 9.532-21.25 21.25s9.532 21.25 21.25 21.25 21.25-9.532 21.25-21.25S86.718 68.143 75 68.143z" data-fill-palette-color="accent"></path><path fill="#374151" d="M64.75 89.393h-4.5c0-8.133 6.616-14.75 14.75-14.75v4.5C69.349 79.143 64.75 83.74 64.75 89.393z" data-fill-palette-color="accent"></path><path fill="#374151" d="M130.357 65.183H115.44V50.267h14.917V65.183zM119.94 60.683h5.917v-5.916h-5.917V60.683z" data-fill-palette-color="accent"></path><rect x="17.97" y="33.063" fill="#374151" width="15.625" height="4.5" data-fill-palette-color="accent"></rect></g></g></svg></g></svg></g></svg></g><defs></defs></svg><rect width="395.52" height="79.09544160570826" fill="none" stroke="none" visibility="hidden"></rect></g></svg></g></svg>